<svg width="768" height="768" viewBox="0 0 768 768" fill="none" xmlns="http://www.w3.org/2000/svg">
<path d="M201.06 531.832C198.135 529.841 194.612 533.348 196.857 536.084C237.389 585.481 297.087 618.547 364.604 623.892C364.958 623.923 365.297 623.954 365.652 623.969C367.054 624.077 368.472 624.154 369.889 624.231C371.183 624.308 372.462 624.37 373.757 624.416C374.727 624.462 375.713 624.493 376.7 624.524C379.103 624.585 381.522 624.647 383.957 624.647C386.391 624.647 388.795 624.601 391.214 624.524C392.2 624.493 393.171 624.447 394.157 624.416C395.452 624.37 396.746 624.293 398.025 624.231C399.442 624.154 400.845 624.062 402.262 623.969C402.616 623.938 402.955 623.907 403.31 623.892C470.831 618.547 530.532 585.49 571.064 536.079C573.308 533.343 569.786 529.836 566.861 531.827C516.988 565.776 453.322 586.142 383.972 586.142C314.625 586.142 250.937 565.778 201.06 531.832Z" fill="#061D27"/>
<path d="M207.793 281.04C242.474 220.985 291.935 176.032 346.275 149.813C349.462 148.276 348.186 143.472 344.694 144.048C281.639 154.449 223.16 189.617 184.773 245.416C184.573 245.709 184.372 245.986 184.172 246.279C183.371 247.45 182.6 248.621 181.83 249.808C181.121 250.886 180.428 251.98 179.734 253.074C179.21 253.906 178.687 254.723 178.163 255.555C176.899 257.604 175.651 259.669 174.434 261.78C173.217 263.875 172.061 266.002 170.905 268.113C170.443 268.976 169.981 269.838 169.534 270.717C168.933 271.857 168.348 273.013 167.762 274.168C167.13 275.432 166.483 276.695 165.882 277.974C165.728 278.282 165.589 278.606 165.435 278.914C136.304 340.058 135.084 408.294 157.596 468.095C158.843 471.406 163.641 470.11 163.379 466.582C158.92 406.418 173.112 341.11 207.793 281.04Z" fill="#061D27"/>
<path d="M602.448 278.914C602.294 278.606 602.155 278.282 602.001 277.974C601.385 276.711 600.753 275.432 600.121 274.168C599.536 273.013 598.95 271.872 598.349 270.717C597.902 269.854 597.44 268.976 596.978 268.113C595.837 265.986 594.666 263.875 593.449 261.78C592.232 259.684 590.984 257.604 589.72 255.555C589.212 254.723 588.673 253.891 588.149 253.074C587.455 251.98 586.762 250.902 586.053 249.808C585.283 248.621 584.497 247.435 583.711 246.279C583.511 245.986 583.31 245.709 583.11 245.416C544.724 189.618 486.235 154.451 423.19 144.048C419.698 143.472 418.422 148.276 421.609 149.814C475.949 176.033 525.408 220.985 560.075 281.04C594.756 341.11 608.948 406.418 604.489 466.582C604.227 470.11 609.025 471.407 610.272 468.095C632.787 408.294 631.579 340.058 602.448 278.914Z" fill="#061D27"/>
</svg>
